<svg width="239.587" height="38.401" viewBox="0 0 239.587 38.401" xmlns="http://www.w3.org/2000/svg" xmlns:xlink="http://www.w3.org/1999/xlink" overflow="hidden"><g id="logo" transform="translate(-0.009 -0.239)"><path d="M27.967 0.879C20.242 0.879 12.182 2.615 4.047 4.872 2.99898 5.09119 2.07651 5.7076 1.473 6.592 1.04468 7.33334 0.765756 8.15141 0.652 9-0.00821043 13.4995-0.185885 18.0567 0.122 22.594 0.0961926 23.703 0.341638 24.8015 0.837 25.794 1.44339 26.6286 2.37434 27.168 3.4 27.279 4.80667 27.485 6.21733 27.66 7.632 27.804L7.32 36.504C7.27827 37.1218 7.54391 37.7204 8.03 38.104 8.38546 38.37 8.81169 38.5248 9.255 38.549 10.225 38.6403 11.1565 38.1463 11.625 37.292 13.1948 33.9792 15.3328 30.967 17.942 28.392 24.7776 28.4944 31.6139 28.2457 38.424 27.647 40.6137 27.5042 42.48 26.0067 43.094 23.9 44.451 19.668 44.662 14.444 44.806 9.163 44.9454 7.21816 44.2339 5.30855 42.856 3.929 41.6409 3.07654 40.2583 2.49259 38.8 2.216 35.2458 1.39219 31.6149 0.94406 27.967 0.879ZM38.257 4.189C39.4357 4.41896 40.5593 4.87282 41.567 5.526 42.5383 6.48452 42.9855 7.85397 42.767 9.201 42.625 14.323 42.379 19.294 41.223 23.061 40.8742 24.4703 39.6641 25.4993 38.217 25.617 31.3328 26.2328 24.4206 26.4795 17.51 26.356 17.2252 26.3463 16.949 26.4549 16.747 26.656 13.8881 29.4485 11.545 32.7242 9.826 36.332 9.75801 36.4405 9.63908 36.5066 9.511 36.507 9.43161 36.5038 9.36893 36.4384 9.369 36.359L9.683 26.927C9.68571 26.3995 9.29833 25.951 8.776 25.877 7.084 25.7157 5.39733 25.509 3.716 25.257 2.99 25.146 2.722 24.947 2.523 24.651 2.25032 23.976 2.12584 23.2503 2.158 22.523 1.86216 18.1512 2.02673 13.7604 2.649 9.423 2.73562 8.80916 2.91853 8.21283 3.191 7.656 3.59437 7.14558 4.18767 6.82078 4.835 6.756 12.791 4.556 20.575 2.916 27.903 2.911 31.3893 2.97724 34.8592 3.40554 38.257 4.189ZM10.778 12.279C9.76744 13.5131 9.71005 15.2716 10.638 16.569 11.0952 17.2379 11.8092 17.6876 12.61 17.811 13.5319 17.8555 14.4362 17.5481 15.14 16.951 16.466 15.7252 16.6642 13.7007 15.601 12.241 15.096 11.5037 14.2755 11.0447 13.383 11 12.3662 11.0039 11.4076 11.4747 10.783 12.277ZM22.634 11.207C21.5869 11.3089 20.6521 11.9065 20.12 12.814 19.4099 13.7405 19.2291 14.9682 19.642 16.06 20.602 18.26 23.919 18.236 25.242 15.997 25.775 15.0481 25.775 13.8899 25.242 12.941 24.8469 12.0642 24.0536 11.4314 23.111 11.241 22.9534 11.2151 22.7937 11.2044 22.634 11.209ZM32.259 11.414C31.9161 11.4032 31.5735 11.4406 31.241 11.525 29.751 11.9671 28.7964 13.4188 28.981 14.962 29.0594 15.8622 29.4952 16.6935 30.191 17.27 31.0109 17.8951 32.0666 18.1223 33.071 17.89 34.2128 17.6312 35.1114 16.7512 35.394 15.615 35.7037 14.6635 35.5505 13.622 34.98 12.8 34.3358 11.9433 33.3318 11.4325 32.26 11.416ZM13.294 13.037C13.5577 13.0318 13.8027 13.1726 13.931 13.403 14.3485 14.0229 14.2959 14.8462 13.803 15.408 13.356 15.798 13.077 15.832 12.881 15.808 12.6409 15.7554 12.4334 15.6054 12.308 15.394 11.8106 14.7565 11.9242 13.8366 12.5616 13.3392 12.7739 13.1736 13.0276 13.0697 13.295 13.039ZM22.777 13.26C23.0555 13.4043 23.2872 13.6249 23.445 13.896 23.6575 14.2149 23.676 14.6253 23.493 14.962 23.182 15.5678 22.4388 15.8068 21.833 15.4958 21.7099 15.4326 21.5984 15.3492 21.503 15.249 21.4445 14.7847 21.5584 14.315 21.823 13.929 22.0094 13.5605 22.3672 13.3093 22.777 13.259ZM33.341 14.008C33.4842 14.3499 33.5191 14.7276 33.441 15.09 33.3869 15.5021 33.0707 15.8309 32.661 15.901 32.2535 16.0327 31.8073 15.9553 31.468 15.694 31.1975 15.4592 31.0295 15.128 31 14.771 30.91 13.851 31.24 13.638 31.764 13.498 32.3439 13.3551 32.9547 13.5526 33.341 14.008Z" id="Trazado_368" fill="#FFFFFF"/><path d="M57.61 5C57.6254 4.7413 57.7264 4.49507 57.897 4.3 58.0704 4.09466 58.3284 3.98036 58.597 3.99L65.423 3.99C65.6859 4.00287 65.9367 4.10398 66.135 4.277 66.3665 4.4447 66.5025 4.71412 66.5 5L66.5 15.889 77.925 15.889 77.925 5C77.9181 4.44776 78.3601 3.99445 78.9123 3.9875 78.9279 3.9873 78.9435 3.98747 78.959 3.988L85.693 3.988C85.9767 3.98291 86.2553 4.06303 86.493 4.218 86.7299 4.3852 86.861 4.66496 86.838 4.954L86.838 37.1C86.8594 37.3853 86.7488 37.6646 86.538 37.858 86.3174 38.0343 86.0401 38.1243 85.758 38.111L78.958 38.111C78.6861 38.123 78.4196 38.0327 78.211 37.858 78.0077 37.6604 77.9025 37.3827 77.924 37.1L77.924 24.047 66.5 24.047 66.5 37.1C66.5159 37.3832 66.4017 37.6582 66.19 37.847 65.9511 38.0336 65.6527 38.1274 65.35 38.111L58.6 38.111C57.9567 38.111 57.6273 37.811 57.612 37.211L57.612 5ZM120.485 37.725C120.305 37.8835 120.087 37.9939 119.853 38.046 119.646 38.0907 119.434 38.1142 119.222 38.116L115.752 38.116C115.506 38.1225 115.262 38.0711 115.039 37.966 114.844 37.8701 114.671 37.7337 114.533 37.566 114.392 37.3915 114.276 37.1979 114.189 36.991 114.096 36.7748 114.02 36.5522 113.959 36.325L113.247 33.383C112.961 33.9505 112.626 34.4925 112.247 35.003 111.774 35.645 111.213 36.2173 110.581 36.703 109.848 37.2655 109.034 37.7152 108.168 38.037 107.138 38.4135 106.047 38.5966 104.95 38.577 101.729 38.6318 98.6505 37.2505 96.55 34.808 95.5246 33.6056 94.7336 32.2217 94.218 30.728 93.6586 29.1298 93.3785 27.4472 93.39 25.754L93.39 10.695C93.3566 10.2236 93.4912 9.75561 93.77 9.374 94.0837 9.05012 94.527 8.88544 94.976 8.926L100.284 8.926C100.761 8.8749 101.241 8.99274 101.64 9.259 101.933 9.62508 102.065 10.0938 102.008 10.559L102.008 25.519C102.006 26.1704 102.16 26.8128 102.456 27.393 102.753 27.9808 103.154 28.51 103.64 28.955 104.128 29.4063 104.692 29.7682 105.306 30.024 105.907 30.2803 106.553 30.413 107.206 30.414 107.798 30.405 108.381 30.2721 108.918 30.024 109.512 29.7607 110.062 29.4079 110.549 28.978 111.047 28.5416 111.464 28.0202 111.779 27.438 112.096 26.8651 112.262 26.2208 112.261 25.566L112.261 10.626C112.262 10.3586 112.313 10.0939 112.411 9.845 112.495 9.60386 112.652 9.39443 112.859 9.245 113.033 9.13669 113.221 9.05416 113.419 9 113.618 8.95097 113.823 8.92745 114.028 8.93L119.222 8.93C119.744 8.88098 120.262 9.05665 120.646 9.413 120.95 9.77086 121.106 10.231 121.083 10.7L121.083 36.411C121.085 36.6897 121.018 36.9645 120.888 37.211 120.765 37.4489 120.578 37.6477 120.348 37.785L120.485 37.717ZM147.166 34.553C146.752 34.967 146.296 35.4113 145.799 35.886 145.287 36.3726 144.738 36.8183 144.156 37.219 143.555 37.6346 142.907 37.978 142.226 38.242 141.514 38.5134 140.758 38.6491 139.996 38.642 138.016 38.6634 136.053 38.264 134.239 37.47 132.528 36.7193 130.988 35.6286 129.712 34.264 128.425 32.8718 127.419 31.2449 126.748 29.472 126.025 27.5796 125.663 25.5687 125.679 23.543 125.661 21.5136 126.023 19.4987 126.748 17.603 127.421 15.8349 128.428 14.2122 129.712 12.823 130.987 11.4597 132.527 10.3726 134.239 9.629 136.056 8.8412 138.019 8.44494 140 8.466 140.785 8.45681 141.566 8.58125 142.31 8.834 142.983 9.06701 143.623 9.38348 144.217 9.776 144.787 10.156 145.318 10.5915 145.803 11.076 146.285 11.5587 146.741 12.03 147.17 12.49L147.17 1.985C147.158 1.52996 147.318 1.08706 147.618 0.745 147.969 0.385819 148.462 0.200569 148.963 0.239L154.133 0.239C154.35 0.242287 154.564 0.284983 154.765 0.365 154.987 0.449418 155.193 0.570058 155.375 0.722 155.558 0.875213 155.71 1.0623 155.822 1.273 155.938 1.49216 155.998 1.73694 155.995 1.985L155.995 36.342C155.995 37.522 155.374 38.112 154.133 38.112L149.633 38.112C149.39 38.1225 149.148 38.083 148.921 37.996 148.754 37.9211 148.608 37.8068 148.495 37.663 148.367 37.4944 148.263 37.309 148.185 37.112 148.076 36.8527 147.962 36.596 147.841 36.342L147.174 34.549ZM133.952 23.541C133.944 24.5074 134.104 25.4679 134.423 26.38 134.715 27.2237 135.172 28.0009 135.768 28.666 136.356 29.3138 137.071 29.8339 137.868 30.194 138.724 30.5773 139.654 30.7694 140.592 30.757 141.541 30.763 142.481 30.5836 143.361 30.229 144.202 29.8921 144.97 29.3964 145.624 28.769 146.959 27.4757 147.749 25.7202 147.831 23.863L147.831 23.541C147.834 22.5803 147.646 21.6286 147.279 20.741 146.923 19.8699 146.404 19.0745 145.751 18.397 145.096 17.719 144.314 17.1755 143.451 16.797 142.549 16.402 141.574 16.2023 140.59 16.211 139.649 16.1988 138.718 16.3991 137.866 16.797 137.062 17.1772 136.346 17.7223 135.766 18.397 135.174 19.0869 134.718 19.8821 134.421 20.741 134.106 21.6407 133.947 22.5877 133.951 23.541ZM182.672 34.549C182.258 34.963 181.802 35.4073 181.304 35.882 180.792 36.3686 180.243 36.8143 179.661 37.215 179.06 37.6306 178.412 37.974 177.731 38.238 177.019 38.5094 176.263 38.6451 175.501 38.638 173.521 38.6595 171.559 38.26 169.745 37.466 168.034 36.7154 166.493 35.6247 165.217 34.26 163.931 32.8676 162.924 31.2407 162.253 29.468 161.531 27.5754 161.168 25.5646 161.184 23.539 161.166 21.5096 161.529 19.4948 162.253 17.599 162.926 15.8309 163.933 14.2082 165.217 12.819 166.492 11.4556 168.033 10.3685 169.745 9.625 171.561 8.83917 173.522 8.44428 175.5 8.466 176.285 8.45681 177.066 8.58125 177.81 8.834 178.483 9.06701 179.123 9.38348 179.717 9.776 180.287 10.156 180.818 10.5915 181.303 11.076 181.786 11.5587 182.242 12.03 182.67 12.49L182.67 1.985C182.658 1.52996 182.818 1.08706 183.118 0.745 183.469 0.385819 183.962 0.200569 184.463 0.239L189.633 0.239C189.85 0.242287 190.064 0.284983 190.265 0.365 190.487 0.448959 190.693 0.569643 190.875 0.722 191.058 0.87519 191.21 1.06227 191.323 1.273 191.438 1.49247 191.497 1.7371 191.495 1.985L191.495 36.342C191.495 37.522 190.874 38.112 189.633 38.112L185.133 38.112C184.89 38.1225 184.648 38.083 184.421 37.996 184.255 37.921 184.109 37.8067 183.996 37.663 183.868 37.4943 183.764 37.3089 183.686 37.112 183.577 36.8527 183.462 36.596 183.341 36.342L182.674 34.549ZM169.457 23.541C169.449 24.5074 169.609 25.4679 169.928 26.38 170.221 27.2234 170.678 28.0003 171.273 28.666 171.861 29.3138 172.576 29.8339 173.373 30.194 174.229 30.5773 175.158 30.7694 176.096 30.757 177.045 30.763 177.985 30.5836 178.865 30.229 179.706 29.8922 180.475 29.3965 181.129 28.769 182.463 27.4745 183.252 25.7197 183.335 23.863L183.335 23.541C183.338 22.5803 183.15 21.6286 182.783 20.741 182.427 19.8699 181.908 19.0745 181.255 18.397 180.6 17.719 179.819 17.1755 178.955 16.797 178.053 16.402 177.078 16.2023 176.094 16.211 175.154 16.1987 174.223 16.399 173.371 16.797 172.567 17.1773 171.851 17.7224 171.271 18.397 170.679 19.0869 170.223 19.8821 169.926 20.741 169.611 21.6407 169.452 22.5877 169.456 23.541ZM197.61 2.008C197.595 1.56591 197.724 1.13094 197.977 0.768 198.289 0.40103 198.762 0.211683 199.241 0.262L204.871 0.262C205.04 0.265707 205.205 0.30886 205.354 0.388 205.531 0.478587 205.69 0.599413 205.825 0.745 205.977 0.907396 206.101 1.09352 206.193 1.296 206.295 1.51938 206.346 1.76251 206.343 2.008L206.343 36.342C206.378 36.8334 206.197 37.3157 205.848 37.663 205.496 37.9703 205.04 38.1306 204.573 38.111L199.241 38.111C198.774 38.1599 198.309 37.9953 197.977 37.663 197.706 37.278 197.577 36.8114 197.61 36.342ZM236.31 34.618C234.978 35.8489 233.437 36.8332 231.76 37.525 230.062 38.2248 228.242 38.5803 226.405 38.571 222.358 38.5879 218.461 37.0351 215.535 34.239 214.118 32.8728 212.979 31.2456 212.18 29.447 211.342 27.5589 210.918 25.5128 210.939 23.447 210.935 20.8376 211.588 18.2692 212.839 15.979 213.444 14.8758 214.185 13.8528 215.045 12.934 215.902 12.0136 216.88 11.2134 217.952 10.555 219.042 9.88815 220.217 9.37022 221.445 9.015 222.737 8.64254 224.075 8.45699 225.42 8.464 226.671 8.46128 227.916 8.63156 229.12 8.97 230.298 9.29991 231.43 9.77843 232.487 10.394 233.536 11.0071 234.505 11.7485 235.371 12.601 236.233 13.4447 236.989 14.39 237.623 15.416 238.251 16.4346 238.742 17.5318 239.083 18.679 239.428 19.8386 239.602 21.0422 239.6 22.252 239.6 23.052 239.588 23.7033 239.565 24.206 239.566 24.634 239.442 25.053 239.209 25.412 238.942 25.7439 238.561 25.9648 238.14 26.032 237.417 26.1673 236.681 26.2253 235.946 26.205L219.4 26.205C219.515 27.086 219.833 27.9282 220.33 28.665 220.763 29.2897 221.313 29.824 221.95 30.238 222.551 30.6234 223.211 30.9072 223.904 31.078 224.543 31.2398 225.198 31.3244 225.857 31.33 226.428 31.3277 226.997 31.2701 227.557 31.158 228.131 31.0454 228.695 30.8917 229.247 30.698 229.763 30.5187 230.262 30.2956 230.74 30.031 231.138 29.8178 231.506 29.5514 231.832 29.239 232.03 29.0724 232.241 28.9223 232.464 28.79 232.635 28.6916 232.829 28.6402 233.027 28.641 233.246 28.6481 233.459 28.7201 233.637 28.848 233.889 29.0251 234.123 29.226 234.337 29.448L236.773 32.206C236.916 32.3623 237.025 32.546 237.095 32.746 237.141 32.9066 237.164 33.0729 237.164 33.24 237.171 33.5252 237.082 33.8044 236.911 34.033 236.741 34.2565 236.538 34.4539 236.311 34.619ZM225.256 15.475C224.66 15.4748 224.069 15.596 223.521 15.831 222.954 16.0732 222.423 16.3944 221.946 16.785 221.455 17.1844 221.011 17.6395 220.625 18.141 220.252 18.6181 219.932 19.1345 219.671 19.681L231.414 19.681C231.106 19.1048 230.757 18.5517 230.369 18.026 230 17.5272 229.568 17.079 229.082 16.693 228.586 16.301 228.026 15.9966 227.427 15.793 226.726 15.5658 225.993 15.457 225.256 15.471Z" id="Trazado_369" fill="#FFFFFF"/></g></svg>